<svg xmlns="http://www.w3.org/2000/svg" width="214" height="52" fill="none"><path fill="#000" d="M78.943 26.975V15.794H68.99v11.18H61V1.542h7.99v7.774h9.953V1.541h7.99v25.434zm29.808 0c0-.964.045-2.75.309-3.97l-.108-.052c-1.532 2.648-4.349 4.587-8.397 4.587-5.684 0-7.58-3.67-7.58-8.05V1.663h7.838v16.093c0 2.04.566 3.261 2.351 3.261 2.768 0 5.024-3.412 5.024-7.086V1.664h7.836v25.31zm43.327 0v-15.84c0-2.19-.509-3.514-2.309-3.514-2.356 0-4.966 3.056-4.966 7.18v12.174h-7.681v-15.89c0-2.04-.461-3.464-2.305-3.464-2.515 0-5.019 3.157-5.019 7.18v12.174h-7.786V1.664h7.326c0 .966-.107 2.646-.309 4.02h.053c1.588-2.8 4.552-4.584 8.142-4.584 3.891 0 6.147 1.936 6.965 4.584 1.332-2.494 4.145-4.584 8.035-4.584 4.969 0 7.687 2.804 7.687 8.56v17.315zm26.741 0c0-1.218 0-2.544.209-3.819h-.06c-1.23 2.648-4.246 4.384-7.783 4.384-4.866 0-7.425-3.314-7.425-7.492 0-6.366 5.993-8.963 14.341-8.963v-1.018c0-2.09-1.176-3.107-4.558-3.107-2.251 0-4.969.713-7.018 1.68l-1.329-6.062c2.663-.914 6.345-1.58 9.676-1.58 8.607 0 11.064 3.263 11.064 8.812v11.158c0 1.832.049 4.022.201 6.007zm-.718-11c-5.478 0-6.961 1.377-6.961 3.262 0 1.322.917 2.391 2.56 2.391 2.605 0 4.401-2.34 4.401-4.837zm28.109 11V10.88c0-2.037-.556-3.26-2.354-3.26-2.768 0-5.066 3.412-5.066 7.082v12.273H191V1.664h7.279c0 .966-.052 2.748-.311 3.968l.046.052c1.595-2.648 4.405-4.584 8.45-4.584 5.687 0 7.536 3.672 7.536 8.05v17.824z"/><path fill="#FDE5DB" d="M47.413 33.362 30.241 22.746v6.374l17.172 10.611z"/><path fill="#D00019" d="m30.241 35.218-17.186 10.61H0V52h13.055L30.24 41.39v-6.155m17.172 10.594V52H214v-6.171z"/><path fill="#E7856C" d="M0 39.731v6.098h13.055l17.186-10.61V29.12L13.055 39.731zm47.413 0v6.098H214V39.73z"/><path fill="#F6D0C0" d="M0 33.362v6.369h13.055l17.186-10.61v-6.375L13.055 33.362zm47.413 0v6.369H214v-6.37z"/><path fill="#FBC4B2" d="M47.413 39.721 30.241 29.12v6.115l17.172 10.61z"/><path fill="#F57861" d="M47.413 45.817 30.241 35.235v6.155L47.413 52z"/></svg>