<svg id="Ebene_1" data-name="Ebene 1" xmlns="http://www.w3.org/2000/svg" viewBox="0 0 255.12 78.48"><defs><style>.cls-1{fill:#009de0;}.cls-2{fill:#585955;}</style></defs><path class="cls-1" d="M165.64,27.89h1.6c-.1.7.07,2,2.24,2,1.74,0,2.28-.91,2.28-1.65s-.85-1.17-2.21-1.56c-1.66-.44-3-1.08-3-2.78,0-1.13.76-3,3.9-3s3.6,1.86,3.43,2.94h-1.64c.06-.59-.16-1.53-1.95-1.53-1.6,0-2.08.83-2.08,1.46,0,.8.57,1.12,2.12,1.58s3.12.94,3.12,2.61-1,3.31-4.15,3.31C165.75,31.24,165.46,28.94,165.64,27.89Z"/><path class="cls-1" d="M175.17,26.63a5.77,5.77,0,0,1,5.77-5.76,4.44,4.44,0,0,1,4.61,4.61,5.8,5.8,0,0,1-5.79,5.76A4.43,4.43,0,0,1,175.17,26.63Zm8.71-1a3,3,0,0,0-3.08-3.18,4,4,0,0,0-4,4.07,3,3,0,0,0,3.1,3.18A4.07,4.07,0,0,0,183.88,25.61Z"/><path class="cls-1" d="M189.3,17.4H191L188.6,31h-1.69Z"/><path class="cls-1" d="M192.25,26.39l.92-5.24h1.69l-.93,5.19c-.38,2.2.37,3.34,2.23,3.34s3-1.13,3.41-3.34l.92-5.19h1.67l-.92,5.24c-.6,3.4-2.78,4.85-5.3,4.85S191.65,29.79,192.25,26.39Z"/><path class="cls-1" d="M204.67,27.32l.84-4.72h-2.18l.25-1.45h2.19l.51-2.91H208l-.52,2.92h3.24l-.26,1.45h-3.24l-.85,4.8c-.32,1.83.5,2.15,1.38,2.15h1.71L209.19,31h-2.05C205.65,31,204.13,30.38,204.67,27.32Z"/><path class="cls-1" d="M212.61,21.15h1.69L212.56,31h-1.68Zm.24-2.92a1.29,1.29,0,0,1,1.29-1,.85.85,0,0,1,.94,1,1.28,1.28,0,0,1-1.31,1A.85.85,0,0,1,212.85,18.23Z"/><path class="cls-1" d="M215.66,26.63a5.77,5.77,0,0,1,5.77-5.76A4.44,4.44,0,0,1,226,25.48a5.8,5.8,0,0,1-5.79,5.76A4.43,4.43,0,0,1,215.66,26.63Zm8.71-1a3,3,0,0,0-3.08-3.18,4,4,0,0,0-4,4.07,3,3,0,0,0,3.1,3.18A4.07,4.07,0,0,0,224.37,25.61Z"/><path class="cls-1" d="M229.14,21.15h1.61l-.34,2a4.7,4.7,0,0,1,3.91-2.23c2.37,0,3.81,1.58,3.17,5.19l-.85,4.9H235l.85-4.87c.48-2.78-.64-3.67-2.09-3.67A4,4,0,0,0,230,25.8L229.09,31h-1.68Z"/><path class="cls-1" d="M239.57,27.89h1.59c-.09.7.08,2,2.24,2,1.74,0,2.29-.91,2.29-1.65s-.85-1.17-2.21-1.56c-1.66-.44-3-1.08-3-2.78,0-1.13.76-3,3.89-3s3.61,1.86,3.44,2.94h-1.64c.06-.59-.16-1.53-2-1.53-1.61,0-2.08.83-2.08,1.46,0,.8.57,1.12,2.12,1.58s3.12.94,3.12,2.61-1,3.31-4.15,3.31C239.67,31.24,239.39,28.94,239.57,27.89Z"/><path class="cls-2" d="M165.35,40.31h-2l.26-1.44h2l.12-.69a3.39,3.39,0,0,1,3.46-3.12H171l-.25,1.4h-1.41a2.05,2.05,0,0,0-1.94,1.85l-.09.56h2.87l-.25,1.44H167l-1.36,8.37H164Z"/><path class="cls-2" d="M170.18,44.35A5.78,5.78,0,0,1,176,38.59a4.44,4.44,0,0,1,4.62,4.61A5.81,5.81,0,0,1,174.78,49,4.43,4.43,0,0,1,170.18,44.35Zm8.71-1a3,3,0,0,0-3.07-3.18,4,4,0,0,0-4,4.07A3,3,0,0,0,175,47.4,4.07,4.07,0,0,0,178.89,43.33Z"/><path class="cls-2" d="M183.66,38.87h1.62l-.4,2.19a3.87,3.87,0,0,1,3.38-2.19h1.33l-.26,1.45h-1.24c-1.73,0-3.24,1.38-3.66,3.74l-.82,4.62h-1.68Z"/><path class="cls-2" d="M160.67,56.59h1.58l-.37,2.1A5,5,0,0,1,166,56.32c2.49,0,4.11,2.07,4.11,4.6a5.79,5.79,0,0,1-5.64,5.76A3.63,3.63,0,0,1,161,64.14l-.2,1.31L160,69.74h-1.66Zm7.78,4.5a3,3,0,0,0-3-3.23,4.29,4.29,0,0,0-4,3.59,3.08,3.08,0,0,0,3,3.69A4.06,4.06,0,0,0,168.45,61.09Z"/><path class="cls-2" d="M171.5,62.14a5.81,5.81,0,0,1,5.57-5.82,3.59,3.59,0,0,1,3.63,2.47l.39-2.2h1.6L181,66.4h-1.61l.37-2.09a4.78,4.78,0,0,1-4.07,2.37C173.07,66.68,171.5,64.62,171.5,62.14Zm8.66-.61a3,3,0,0,0-3-3.66,4.07,4.07,0,0,0-4,4.1,2.94,2.94,0,0,0,3,3.16A4.28,4.28,0,0,0,180.16,61.53Z"/><path class="cls-2" d="M185.51,62.76l.84-4.72h-2.18l.25-1.45h2.19l.51-2.91h1.69l-.52,2.92h3.24L191.27,58H188l-.85,4.8c-.32,1.83.5,2.15,1.38,2.15h1.71L190,66.4H188C186.49,66.4,185,65.82,185.51,62.76Z"/><path class="cls-2" d="M194.14,52.86h1.69l-.8,4.55-.23,1.08a4.68,4.68,0,0,1,3.87-2.18c2.38,0,3.8,1.58,3.17,5.19L201,66.4H199.3l.85-4.87c.48-2.78-.64-3.67-2.08-3.67a4,4,0,0,0-3.71,3.38l-.92,5.16h-1.68Z"/><path class="cls-2" d="M204,62.07a5.77,5.77,0,0,1,5.77-5.76,4.44,4.44,0,0,1,4.61,4.61,5.8,5.8,0,0,1-5.79,5.76A4.43,4.43,0,0,1,204,62.07Zm8.71-1a3,3,0,0,0-3.08-3.18,4,4,0,0,0-4,4.07,3,3,0,0,0,3.1,3.18A4.07,4.07,0,0,0,212.72,61.05Z"/><path class="cls-2" d="M218.18,52.84h1.69L217.48,66.4H215.8Z"/><path class="cls-2" d="M220.61,62.07a5.78,5.78,0,0,1,5.77-5.76A4.44,4.44,0,0,1,231,60.92a5.81,5.81,0,0,1-5.79,5.76A4.43,4.43,0,0,1,220.61,62.07Zm8.71-1a3,3,0,0,0-3.07-3.18,4,4,0,0,0-4,4.07,3,3,0,0,0,3.09,3.18A4.07,4.07,0,0,0,229.32,61.05Z"/><path class="cls-2" d="M232,66.45h1.56c0,1.19.57,2.22,2.7,2.22a4.13,4.13,0,0,0,4.18-3.54l.22-1.21a4.82,4.82,0,0,1-4.15,2.29A4,4,0,0,1,232.4,62,5.76,5.76,0,0,1,238,56.32a3.45,3.45,0,0,1,3.59,2.47l.39-2.2h1.6l-1.5,8.49a5.83,5.83,0,0,1-5.95,5C231.87,70.09,231.89,67.18,232,66.45Zm9-5.05a2.88,2.88,0,0,0-3-3.53,4,4,0,0,0-4,4,2.79,2.79,0,0,0,3,2.89A4.3,4.3,0,0,0,241,61.4Z"/><path class="cls-2" d="M243.57,68.35h1.64c1.11,0,1.68-.63,2.43-2l.14-.28-2.2-9.52h1.66l1.6,6.93.1.91.37-.9,3.92-6.93h1.89l-5.56,9.54c-1.59,2.76-2.49,3.61-4.61,3.61h-1.62Z"/><path class="cls-1" d="M153.49,38.5c0-10.62-6.28-21.06-22.08-21.06a27.49,27.49,0,0,0-18.53,6.66L106.34,61c4,5.8,11,8.67,19.54,8.67,11.48,0,22-7.69,25-17.39H135.62c-1,2.58-4.35,4.87-8.61,4.87-6.61,0-9.89-4-10.22-10h35.34A31.15,31.15,0,0,0,153.49,38.5Zm-14-.09H118.2A12.91,12.91,0,0,1,130.52,30C136.66,30,139.8,34.66,139.52,38.41Z"/><path class="cls-1" d="M26.55,37.84c-6.84-1.85-8.15-3-8.15-4.94,0-1.66,1.31-3.46,5-3.46,5.11,0,6.66,2.29,6,5.44h8.41L40,22.42c-2.91-2.87-7.72-5-15.08-5-16.45,0-20.9,9.91-20.9,16.75,0,9.15,5.9,13,15.13,15.18,5.35,1.32,7.69,2.08,7.69,4.64,0,1.9-1.73,4-6.09,4-6.47,0-6.94-4-6.69-5.73H.19c-.82,5.05.26,17.43,19.33,17.43a28.27,28.27,0,0,0,12.6-2.58l4.53-25.55A38,38,0,0,0,26.55,37.84Z"/><path class="cls-1" d="M105,38.5c0-10.62-6.28-21.06-22.07-21.06A27.58,27.58,0,0,0,64.37,24.1L57.82,61c4,5.8,11,8.67,19.59,8.67,11.48,0,22-7.68,25-17.37H87.15c-1,2.57-4.35,4.85-8.62,4.85-6.61,0-9.89-4-10.21-10h35.33A30.8,30.8,0,0,0,105,38.5Zm-14-.09H69.72A12.92,12.92,0,0,1,82.05,30C88.19,30,91.33,34.66,91.05,38.41Z"/><path class="cls-1" d="M45.84,17.44,63.76,0,52.94,61,35,78.48Z"/></svg>